<?xml version="1.0" encoding="UTF-8" standalone="no"?>
<!-- Created with Inkscape (http://www.inkscape.org/) -->

<svg
   version="1.1"
   id="svg1"
   width="607"
   height="326"
   viewBox="0 0 607 326"
   sodipodi:docname="logo.svg"
   inkscape:export-filename="LogoSVG.svg"
   inkscape:export-xdpi="96"
   inkscape:export-ydpi="96"
   inkscape:version="1.3 (0e150ed6c4, 2023-07-21)"
   xmlns:inkscape="http://www.inkscape.org/namespaces/inkscape"
   xmlns:sodipodi="http://sodipodi.sourceforge.net/DTD/sodipodi-0.dtd"
   xmlns="http://www.w3.org/2000/svg"
   xmlns:svg="http://www.w3.org/2000/svg">
  <defs
     id="defs1" />
  <sodipodi:namedview
     id="namedview1"
     pagecolor="#505050"
     bordercolor="#eeeeee"
     borderopacity="1"
     inkscape:showpageshadow="0"
     inkscape:pageopacity="0"
     inkscape:pagecheckerboard="0"
     inkscape:deskcolor="#505050"
     inkscape:zoom="1.4142136"
     inkscape:cx="265.5186"
     inkscape:cy="159.45258"
     inkscape:window-width="1920"
     inkscape:window-height="1017"
     inkscape:window-x="-8"
     inkscape:window-y="114"
     inkscape:window-maximized="1"
     inkscape:current-layer="g1" />
  <g
     inkscape:groupmode="layer"
     inkscape:label="Image"
     id="g1">
    <path
       style="fill:#2a9d8f;fill-opacity:1;stroke:none"
       d="m 381.59782,30.424374 c -21.3013,2.79685 -41.01599,6.61713 -60,17.44831 -9.38638,5.35531 -21.8114,20.39441 -32,21.97918 -13.69769,2.13059 -28.20023,-1.12549 -42,0.25307 -6.97511,0.69678 -12.07016,6.82759 -11.60571,13.89507 0.72381,11.01437 9.35159,12.99642 18.60571,13 14.34869,0.005 29.76721,-1.61585 44,0.18518 10.13794,1.28286 16.97977,12.898266 10.34723,21.720686 C 302.51011,127.46547 288.93257,125 279.59782,125 h -79 c -11.52939,0 -33.58636,-4.13411 -33.94444,13 -0.142,6.79503 3.9682,12.8448 10.94444,13.81096 20.52976,2.84321 43.26195,0.18904 64,0.18904 9.93716,0 24.97925,2.01756 22.64505,16 -2.34335,14.03728 -19.22569,12 -29.64505,12 h -93 c -12.09543,0 -40.26056,-2.18584 -31.85185,18.99614 C 114.9851,212.19379 142.23309,207 153.59782,207 h 100 c 10.27808,0 28.91187,-3.66062 36.78626,4.21374 9.66229,9.66227 1.13317,22.80234 -10.78626,23.69599 -25.70438,1.92714 -52.45663,-3.12377 -78,0.22375 -8.16574,1.07016 -12.34413,9.24991 -10.60571,16.86652 1.9272,8.44369 9.13533,9.98797 16.60571,10 h 48 c 10.42859,0 26.18686,-2.96814 36,0.60263 5.92715,2.15674 10.95468,8.52533 16,12.24152 9.80237,7.22003 20.68286,13.21539 32,17.70602 25.26068,10.02338 54.60715,11.24332 81,5.43594 14.57538,-3.20712 28.37054,-9.34735 41,-17.17825 79.07245,-49.02881 82.979,-165.18726 11,-222.003846 -12.6196,-9.96127 -27.55066,-17.9602 -43,-22.51004 -14.89795,-4.38745 -32.44559,-7.91189 -48,-5.8696 m -216,40.14817 c -10.33829,2.97045 -12.83455,19.53776 -2.90665,24.65893 9.34682,4.821426 25.61728,1.76853 35.90665,1.76853 4.452,0 9.76242,0.73555 13.99924,-0.89353 10.26137,-3.94556 10.74896,-19.95906 0.99614,-24.78857 -4.14478,-2.05246 -9.51583,-1.3179 -13.99538,-1.3179 -10.40152,0 -23.97754,-2.30719 -34,0.57254 m 295,12.42746 c -3.22186,6.91879 -9.70911,12.31422 -14.71451,17.999996 -10.63962,12.0858 -21.39331,24.07377 -32.21063,36 -3.27905,3.61519 -16.52057,14.53793 -14.87192,19.81558 1.13239,3.62503 7.86237,6.68469 10.79706,8.76004 9.95258,7.03824 23.25867,12.91571 31,22.42438 -42.14557,17.54672 -80.77112,46.2802 -124,61 l 18.57562,-22 46.42438,-52 -44,-29 v -2 l 74,-36.78395 49,-24.216046 M 45.597826,125.57254 c -12.535717,3.60184 -12.134529,21.96377 0,25.77469 C 52.143914,153.40306 60.788324,152 67.597824,152 h 45.999996 c 7.33717,0 18.27062,2.00165 24.99614,-1.3179 10.12651,-4.9982 9.48007,-22.38999 -1.9969,-25.26313 C 118.47905,120.88333 94.302304,125 75.597824,125 c -9.22353,0 -21.10371,-1.9836 -29.999998,0.57254 z"
       id="path1" />
  </g>
</svg>
